<svg width="4425" height="4425" viewBox="0 0 4425 4425" fill="none" xmlns="http://www.w3.org/2000/svg">
<path d="M1915.18 100C1915.18 44.7715 1959.95 0 2015.18 0H2409.82C2465.05 0 2509.82 44.7715 2509.82 100V1087.76H1915.18V100Z" fill="black"/>
<path d="M4325 1915.18C4380.23 1915.18 4425 1959.95 4425 2015.18L4425 2409.82C4425 2465.05 4380.23 2509.82 4325 2509.82L3337.24 2509.82L3337.24 1915.18L4325 1915.18Z" fill="black"/>
<path d="M1376.77 4171.53C1347.23 4218.19 1285.45 4232.06 1238.79 4202.51L905.379 3991.38C858.719 3961.83 844.847 3900.05 874.395 3853.39L1402.86 3018.89L1905.24 3337.03L1376.77 4171.53Z" fill="black"/>
<path d="M1376.77 252.727C1347.23 206.067 1285.45 192.195 1238.79 221.743L905.379 432.881C858.719 462.429 844.847 524.207 874.395 570.867L1402.86 1405.37L1905.24 1087.23L1376.77 252.727Z" fill="black"/>
<path d="M3048.43 4172.26C3077.98 4218.92 3139.76 4232.79 3186.42 4203.24L3519.83 3992.1C3566.49 3962.56 3580.36 3900.78 3550.81 3854.12L3022.35 3019.62L2519.97 3337.76L3048.43 4172.26Z" fill="black"/>
<path d="M3048.43 252C3077.98 205.341 3139.76 191.469 3186.42 221.017L3519.83 432.154C3566.49 461.702 3580.36 523.48 3550.81 570.14L3022.35 1404.64L2519.97 1086.5L3048.43 252Z" fill="black"/>
<path d="M3338.35 1907.25L3020.34 1404.79L3854.98 876.544C3901.65 847.009 3963.42 860.897 3992.96 907.564L4204.01 1241.03C4233.54 1287.7 4219.66 1349.47 4172.99 1379.01L3338.35 1907.25Z" fill="black"/>
<path d="M3339.07 2509.82L3021.07 3012.28L3855.71 3540.53C3902.37 3570.06 3964.15 3556.17 3993.68 3509.51L4204.73 3176.04C4234.27 3129.37 4220.38 3067.6 4173.72 3038.06L3339.07 2509.82Z" fill="black"/>
<path d="M1086.65 1907.25L1404.66 1404.79L570.019 876.544C523.352 847.009 461.577 860.897 432.042 907.564L220.992 1241.03C191.456 1287.7 205.344 1349.47 252.011 1379.01L1086.65 1907.25Z" fill="black"/>
<path d="M1087.38 2509.82L1405.39 3012.28L570.746 3540.53C524.078 3570.06 462.304 3556.17 432.768 3509.51L221.718 3176.04C192.183 3129.37 206.071 3067.6 252.738 3038.06L1087.38 2509.82Z" fill="black"/>
<path d="M2509.82 4325C2509.82 4380.23 2465.05 4425 2409.82 4425L2015.18 4425C1959.95 4425 1915.18 4380.23 1915.18 4325L1915.18 3337.24L2509.82 3337.24L2509.82 4325Z" fill="black"/>
<path d="M100 2509.82C44.7715 2509.82 5.87108e-06 2465.05 1.31134e-05 2409.82L6.48643e-05 2015.18C7.21067e-05 1959.95 44.7716 1915.18 100 1915.18L1087.76 1915.18L1087.76 2509.82L100 2509.82Z" fill="black"/>
</svg>
